<svg xmlns="http://www.w3.org/2000/svg" version="1.1" xmlns:xlink="http://www.w3.org/1999/xlink" xmlns:svgjs="http://svgjs.com/svgjs" viewBox="0 0 140 140" width="140" height="140"><g transform="matrix(1.4,0,0,1.4,0,0)"><path d="M84.788,61.135a2.5,2.5,0,0,1-2.446,1.99H46.2a2.5,2.5,0,0,1-2.449-3.01l5.158-21.25a2.5,2.5,0,0,1,2.449-1.99H87.5a2.5,2.5,0,0,1,2.45,3.01Z" fill="none" stroke="#d4d4d4" stroke-linecap="round" stroke-linejoin="round"></path><path d="M64.234,49.018a5,5,0,0,0,5.406.353L89.029,37.4a2.5,2.5,0,0,0-1.531-.524H51.357a2.505,2.505,0,0,0-1.433.451Z" fill="none" stroke="#d4d4d4" stroke-linecap="round" stroke-linejoin="round"></path><path d="M23.125 53.125L39.949 53.125" fill="none" stroke="#d4d4d4" stroke-linecap="round" stroke-linejoin="round"></path><path d="M19.323 59.375L38.699 59.375" fill="none" stroke="#d4d4d4" stroke-linecap="round" stroke-linejoin="round"></path><path d="M13.748 59.375L16.249 59.375" fill="none" stroke="#d4d4d4" stroke-linecap="round" stroke-linejoin="round"></path><path d="M10 59.375L10.624 59.375" fill="none" stroke="#d4d4d4" stroke-linecap="round" stroke-linejoin="round"></path><path d="M13.748 53.125L14.374 53.125" fill="none" stroke="#d4d4d4" stroke-linecap="round" stroke-linejoin="round"></path><path d="M18.749 46.875L19.376 46.875" fill="none" stroke="#d4d4d4" stroke-linecap="round" stroke-linejoin="round"></path><path d="M23.75 40.625L24.375 40.625" fill="none" stroke="#d4d4d4" stroke-linecap="round" stroke-linejoin="round"></path><path d="M17.5 53.125L20.001 53.125" fill="none" stroke="#d4d4d4" stroke-linecap="round" stroke-linejoin="round"></path><path d="M28.125 46.875L41.198 46.875" fill="none" stroke="#d4d4d4" stroke-linecap="round" stroke-linejoin="round"></path><path d="M22.501 46.875L24.999 46.875" fill="none" stroke="#d4d4d4" stroke-linecap="round" stroke-linejoin="round"></path><path d="M33.125 40.625L42.499 40.625" fill="none" stroke="#d4d4d4" stroke-linecap="round" stroke-linejoin="round"></path><path d="M27.499 40.625L30.001 40.625" fill="none" stroke="#d4d4d4" stroke-linecap="round" stroke-linejoin="round"></path><path d="M61.421 46.72L44.26 62.202" fill="none" stroke="#d4d4d4" stroke-linecap="round" stroke-linejoin="round"></path><path d="M72.571 47.561L84.466 61.94" fill="none" stroke="#d4d4d4" stroke-linecap="round" stroke-linejoin="round"></path></g></svg>